<?xml version="1.0" encoding="UTF-8"?>
<svg id="Calque_1" data-name="Calque 1" xmlns="http://www.w3.org/2000/svg" xmlns:xlink="http://www.w3.org/1999/xlink" viewBox="0 0 1000 1000">
  <defs>
    <style>
      .cls-1 {
        fill: url(#linear-gradient);
      }

      .cls-1, .cls-2, .cls-3 {
        stroke-width: 0px;
      }

      .cls-2 {
        fill: #000;
      }

      .cls-3 {
        fill: url(#linear-gradient-2);
      }
    </style>
    <linearGradient id="linear-gradient" x1="312.12" y1="716.46" x2="561.3" y2="716.46" gradientUnits="userSpaceOnUse">
      <stop offset="0" stop-color="red"/>
      <stop offset=".29" stop-color="#f9250e"/>
      <stop offset=".58" stop-color="#f4421a"/>
      <stop offset=".82" stop-color="#f15321"/>
      <stop offset="1" stop-color="#f15a24"/>
    </linearGradient>
    <linearGradient id="linear-gradient-2" x1="149" y1="600.43" x2="398.71" y2="600.43" xlink:href="#linear-gradient"/>
  </defs>
  <g id="xnqTw8.tif">
    <g>
      <path class="cls-2" d="M660.57,711.48c-33.34-1.37-59.03-15.78-74.06-45.87-22.74-45.52-44.65-91.46-66.45-137.45-7.22-15.22-18.01-25.79-33.16-32.97-44.74-21.2-89.27-42.84-133.84-64.41-26.99-13.06-43.45-34.22-47.9-64.09-5.68-38.12,17.37-76.72,54.26-88.13,44.21-13.67,88.9-25.8,133.4-38.54,83.74-23.97,167.51-47.86,251.24-71.87,56.09-16.08,110.67,25.23,106.74,82.04-1.1,15.91-6.49,31.66-10.91,47.2-33.11,116.54-66.54,232.99-99.71,349.51-9.61,33.76-30.7,55.29-65.3,62.85-4.66,1.02-9.5,1.17-14.31,1.73ZM359.02,358.94c.38,9.23,6.64,17.32,17.49,22.53,45.46,21.83,90.81,43.89,136.29,65.66,25.09,12.01,43.6,30.35,55.51,55.5,9.57,20.21,19.42,40.29,29.14,60.43,12.4,25.69,24.71,51.42,37.22,77.05,5.54,11.34,15.85,17.48,26.82,16.56,12.15-1.03,21.2-8.64,25.05-21.09.61-1.96,1.08-3.96,1.64-5.94,15.74-55.06,31.48-110.11,47.23-165.17,19.76-69.1,39.6-138.17,59.11-207.33,1.56-5.51,2.17-11.94.99-17.46-3.42-15.95-18.87-23.92-35.78-19.11-73.26,20.85-146.51,41.76-219.75,62.7-53.28,15.23-106.55,30.49-159.8,45.83-13.58,3.92-21.21,13.84-21.17,29.83Z"/>
      <path class="cls-1" d="M561.3,755.11c.08,44.01-26.37,84.06-66.59,100.84-40.69,16.97-88.03,8.08-118.84-22.18-8.09-7.95-10.98-17.39-7.95-28.12,3.07-10.85,10.8-17.34,21.86-19.29,10.06-1.78,18,2.55,25.36,9.17,23.5,21.16,58.72,18.74,78.82-5.14,17.36-20.61,17.8-51.3-.85-70.88-26.94-28.28-54.51-56.01-82.91-82.83-16.12-15.23-36.01-16.95-57-9.44-6.36,2.28-13.85,3.62-20.41,2.63-11.48-1.73-19.45-11.77-20.52-22.75-1.2-12.28,4.57-22.75,15.45-28.05,38.43-18.7,87.91-12.47,118.98,16.89,29.71,28.08,58.5,57.18,86.79,86.7,19.11,19.93,27.49,44.85,27.79,72.44Z"/>
      <path class="cls-3" d="M255.22,452.27c32.89.99,58.65,10.45,79.65,31.23,11.8,11.68,12.15,28.11,1.4,39.24-10.66,11.04-27.01,11.14-39.3-.03-16.28-14.79-35-19.45-55.82-12.54-20.08,6.66-32.33,21.12-36.24,41.85-3.28,17.39.79,33.56,13.21,46.32,26.77,27.51,53.62,54.98,81.49,81.36,16.95,16.04,37.58,18.3,59.28,9.21,17.92-7.51,35.41,1.16,39.26,19.29,2.6,12.27-3.85,24.36-16.1,30.15-39.89,18.87-89.07,11.27-120.91-19.62-27.71-26.89-55.05-54.19-81.91-81.93-30.66-31.67-38.9-78.62-20.52-118.93,19.42-42.59,53.9-63.27,96.52-65.6Z"/>
      <path class="cls-2" d="M359.02,358.94c-.04-15.99,7.59-25.92,21.17-29.83,53.25-15.35,106.52-30.6,159.8-45.83,73.24-20.94,146.48-41.85,219.75-62.7,16.92-4.81,32.36,3.16,35.78,19.11,1.18,5.52.57,11.94-.99,17.46-19.52,69.16-39.36,138.24-59.11,207.33-15.74,55.06-31.49,110.11-47.23,165.17-.56,1.97-1.04,3.98-1.64,5.94-3.84,12.45-12.9,20.06-25.05,21.09-10.98.93-21.29-5.22-26.82-16.56-12.52-25.63-24.83-51.36-37.22-77.05-9.72-20.14-19.57-40.22-29.14-60.43-11.91-25.16-30.41-43.49-55.51-55.5-45.49-21.77-90.84-43.83-136.29-65.66-10.86-5.21-17.11-13.3-17.49-22.53Z"/>
    </g>
  </g>
</svg>