<?xml version="1.0" encoding="UTF-8"?>
<svg id="Layer_1" data-name="Layer 1" xmlns="http://www.w3.org/2000/svg" xmlns:xlink="http://www.w3.org/1999/xlink" viewBox="0 0 1280 359">
  <defs>
    <style>
      .cls-1 {
        fill: url(#linear-gradient);
      }

      .cls-1, .cls-2, .cls-3, .cls-4, .cls-5 {
        stroke-width: 0px;
      }

      .cls-2 {
        fill: #1a1a1a;
      }

      .cls-3 {
        fill: url(#linear-gradient-4);
      }

      .cls-4 {
        fill: url(#linear-gradient-2);
      }

      .cls-5 {
        fill: url(#linear-gradient-3);
      }
    </style>
    <linearGradient id="linear-gradient" x1="619.49" y1="201.77" x2="763.7" y2="57.56" gradientUnits="userSpaceOnUse">
      <stop offset="0" stop-color="red"/>
      <stop offset=".29" stop-color="#f9250e"/>
      <stop offset=".58" stop-color="#f4421a"/>
      <stop offset=".82" stop-color="#f15321"/>
      <stop offset="1" stop-color="#f15a24"/>
    </linearGradient>
    <linearGradient id="linear-gradient-2" x1="805.44" y1="223.23" x2="925.28" y2="103.4" xlink:href="#linear-gradient"/>
    <linearGradient id="linear-gradient-3" x1="920.59" y1="319.57" x2="1221.03" y2="19.13" xlink:href="#linear-gradient"/>
    <linearGradient id="linear-gradient-4" x1="943.08" y1="140.43" x2="997.1" y2="86.42" xlink:href="#linear-gradient"/>
  </defs>
  <path class="cls-2" d="M105.17,230.88c-26.47,0-46.91-9.11-61.3-27.34-14.4-18.23-19.44-40.16-15.11-65.8,4.33-25.47,16.31-46.53,35.96-63.18,19.64-16.65,42.12-24.97,67.42-24.97,16.64,0,31.05,3.75,43.2,11.24,11.13,6.86,19.68,16.03,25.64,27.5.92,1.76.22,3.94-1.54,4.87l-19.59,10.36c-1.77.94-3.94.24-4.9-1.51-8.92-16.32-23.94-24.48-45.06-24.48-18.31,0-34.21,5.91-47.7,17.73-13.48,11.82-21.81,26.81-24.97,44.95-3.16,18.15-.04,33.13,9.36,44.95,9.4,11.82,22.93,17.73,40.58,17.73,22.67,0,40.74-8.75,54.2-26.27,1.15-1.5,3.26-1.87,4.85-.84l17.34,11.25c1.79,1.16,2.2,3.61.89,5.28-8.94,11.34-20,20.44-33.2,27.31-14.4,7.49-29.76,11.24-46.07,11.24Z"/>
  <path class="cls-2" d="M348.52,99.53c14.34,0,25.29,4.62,32.88,13.87,7.58,9.25,10.04,21.78,7.38,37.61l-12.98,73.63c-.31,1.73-1.81,3-3.57,3h-19.77c-2.25,0-3.96-2.04-3.57-4.26l12.28-69.65c1.66-9.49.46-16.69-3.61-21.6-4.07-4.91-10.51-7.37-19.32-7.37s-16.87,2.72-23.68,8.15c-6.81,5.43-11.38,13.66-13.71,24.69l-11.71,67.05c-.3,1.74-1.81,3-3.57,3h-19.77c-2.25,0-3.96-2.03-3.57-4.25l20.54-117.6c.3-1.74,1.81-3,3.57-3h19.77c2.25,0,3.96,2.03,3.57,4.25h0c-.57,3.28,3.21,5.54,5.82,3.46,9.18-7.3,20.18-10.96,33.02-10.96Z"/>
  <path class="cls-2" d="M482.48,99.53c18.64,0,33.17,6.41,43.58,19.23,10.38,12.79,13.84,28.32,10.39,46.57-.02.08-.03.17-.05.25-.92,3.66-1.64,6.47-2.18,8.44-.43,1.58-1.86,2.67-3.5,2.67h-92.81c-2.15,0-3.85,1.86-3.61,3.99.87,7.71,3.95,13.7,9.24,17.98,6.16,4.99,14.23,7.49,24.22,7.49,13.6,0,24.61-4.42,33.02-13.26,1.29-1.36,3.37-1.57,4.86-.43l14,10.63c1.67,1.27,1.94,3.71.54,5.28-13.44,15.01-31.67,22.51-54.67,22.51-20.15,0-35.55-6.57-46.2-19.73-10.66-13.15-14.4-29.3-11.24-48.44,3.16-18.31,11.74-33.42,25.72-45.32,13.98-11.9,30.22-17.85,48.69-17.85ZM443.35,154.47h63.89c2.08,0,3.75-1.76,3.63-3.84-.5-8.4-3.18-14.78-8.04-19.14-5.58-4.99-12.95-7.49-22.1-7.49-9.82,0-18.52,2.71-26.1,8.12-6.1,4.36-10.93,10.03-14.49,17.03-1.24,2.43.48,5.32,3.21,5.32Z"/>
  <path class="cls-2" d="M604.62,128.75c-1.76,0-3.27,1.26-3.57,3l-10.04,56.96c-.84,5.15-.26,8.89,1.74,11.22,2,2.33,5.29,3.57,9.87,3.74,3.51.13,7.64.11,12.37-.06,2.3-.08,4.1,1.98,3.7,4.25l-3,17.12c-.28,1.59-1.59,2.81-3.2,2.98-18.41,1.99-31.73.01-39.94-5.94-8.61-6.24-11.51-17.35-8.68-33.34l9.94-55.67c.4-2.22-1.31-4.26-3.57-4.26h-14.29c-2.26,0-3.97-2.05-3.57-4.28l3.42-18.72c.31-1.72,1.82-2.97,3.57-2.97h16.8c1.76,0,3.26-1.26,3.57-2.99l3.88-21.71c.24-1.37,1.25-2.48,2.59-2.85l20.54-5.79c2.57-.73,5.02,1.49,4.56,4.12l-4.4,24.97c-.39,2.22,1.32,4.26,3.57,4.26h22.54c2.26,0,3.97,2.05,3.57,4.28l-3.42,18.72c-.31,1.72-1.82,2.97-3.57,2.97h-24.98Z"/>
  <g>
    <path class="cls-2" d="M232.82,98.9c-2.51-1.89-4.41-.79-4.99,2.3-1.33,7.04-2.99,14.04-3.88,21.13-3,24.04-5.78,48.1-8.49,72.17-.95,8.47-1.85,16.98-1.94,25.48-.03,3.02,1.62,7.67,3.85,8.72,3.55,1.67,6.42-2.2,8.54-5.05,7.96-10.67,14.04-22.38,19.16-36.32,1.04-4.84,2.75-11.12,3.71-17.51,3.41-22.61.08-44.26-10.16-64.72-1.22-2.44-3.55-4.52-5.79-6.21Z"/>
    <path class="cls-2" d="M253.8,71.08c-1.92-5.92-9.88-13.08-23.99-21.44-1.68-1-4.32-2.14-6.77-3.14-2.75-1.12-4.27-1.23-4.12-.44.35,1.78.38,3.48,1.16,5.38,2.63,6.44,5.45,12.93,8.35,19.44,1.02,2.29,2.11,4.61,3.93,7.1.65.89,3.23,2.64,5.54,3.45,3.67,1.29,5.46.79,6.79.43,4.98-1.37,8-3.46,9.61-6.44-.12-1.2.05-2.67-.49-4.35Z"/>
  </g>
  <path class="cls-1" d="M775.42,69.56c-9.24-11.15-22.52-16.73-39.83-16.73h-59.47c-1.76,0-3.27,1.27-3.57,3l-29.27,167.55c-.39,2.22,1.32,4.25,3.57,4.25h21.54c1.76,0,3.27-1.27,3.57-3l9.41-53.92c.3-1.74,1.81-3,3.57-3h29.91c19.31,0,35.25-5.24,47.82-15.73,12.57-10.49,20.18-23.97,22.85-40.45,2.5-16.81-.87-30.8-10.11-41.95ZM756.91,109.02c-1.67,9.33-5.95,16.94-12.86,22.85-6.91,5.91-15.69,8.86-26.34,8.86h-26.79c-2.25,0-3.96-2.03-3.57-4.25l9.36-53.68c.3-1.74,1.81-3,3.57-3h31.16c9.65,0,16.69,2.67,21.1,7.99,4.41,5.33,5.87,12.4,4.37,21.23Z"/>
  <path class="cls-4" d="M923.15,102.78h-19.77c-1.76,0-3.27,1.27-3.57,3l-1.43,8.21c-.54,3.07-4.44,4.08-6.39,1.64-8.61-10.73-20.97-16.1-37.1-16.1-17.48,0-32.84,5.83-46.07,17.48-13.23,11.65-21.52,26.81-24.85,45.45-3.33,18.15-.12,34.09,9.61,47.82,9.74,13.73,23.68,20.6,41.83,20.6,15.02,0,27.76-3.82,38.22-11.47,2.64-1.93,6.29.31,5.72,3.54l-.08.43c-.39,2.22,1.32,4.25,3.57,4.25h19.77c1.76,0,3.27-1.27,3.57-3l20.54-117.6c.39-2.22-1.32-4.25-3.57-4.25ZM889.91,162.34c-.01.11-.03.21-.04.32l-1.19,6.81c-.02.11-.04.22-.07.33-2.68,10.44-8.24,18.93-16.69,25.48-8.49,6.59-18.07,9.88-28.72,9.88-11.32,0-20.06-3.87-26.22-11.61-6.16-7.74-8.24-17.44-6.24-29.09,2.16-12.15,7.57-21.73,16.23-28.72,8.65-6.99,18.39-10.49,29.22-10.49s19.22,3.34,25.72,10c6.46,6.64,9.13,15.67,8.01,27.09Z"/>
  <g>
    <path class="cls-5" d="M1249.59,47.87c-6.67-7.63-14.99-13.02-24.87-15.64-3.68-.97-7.45-1.61-11.21-2.3-1.72-.32-3.46-.48-5.2-.48h-.31c-1.78,0-3.54.23-5.3.54-1.25.22-2.52.37-3.79.49-16.07,1.49-30.98,7.02-45.33,14.02-31.12,15.17-59.05,35.07-84.48,58.53-27.99,25.81-54.14,53.32-77.32,83.57-24.38,31.81-45.53,65.51-59.47,103.3-2.85,7.72-4.94,15.76-6.78,23.79-1.16,5.03-.95,10.31,3.4,14.2,2.95,2.64,5.12,2.1,6.52-1.41,9.92-24.88,23.29-47.87,38.35-69.91,26.44-38.72,57.32-73.66,90.94-106.25,19.7-19.1,40.64-36.56,64.75-49.98,36.15-20.13,74.57-33.49,115.5-39.7,2.82-.43,6.79-2.31,7.58-4.48.78-2.16-1.1-6.12-2.98-8.27Z"/>
    <path class="cls-3" d="M975.4,172.75c1.91,1.95,4.76,3.23,7.41,4.15,2.97,1.04,4.44-.59,4.06-3.71-.88-7.11-1.42-14.28-2.74-21.31-4.46-23.81-9.13-47.58-13.87-71.33-1.67-8.36-3.41-16.74-5.9-24.87-.89-2.88-3.88-6.82-6.32-7.14-3.89-.51-5.44,4.05-6.6,7.41-4.33,12.59-6.56,25.59-7.2,40.43.48,4.92.76,11.43,1.79,17.81,3.63,22.57,13.39,42.19,29.38,58.56Z"/>
  </g>
</svg>