<?xml version="1.0" encoding="UTF-8"?>
<svg id="Calque_1" data-name="Calque 1" xmlns="http://www.w3.org/2000/svg" xmlns:xlink="http://www.w3.org/1999/xlink" viewBox="0 0 1000 1000">
  <defs>
    <style>
      .cls-1 {
        fill: url(#linear-gradient);
      }

      .cls-1, .cls-2, .cls-3 {
        stroke-width: 0px;
      }

      .cls-2 {
        fill: #1a1a1a;
      }

      .cls-3 {
        fill: #fff;
      }
    </style>
    <linearGradient id="linear-gradient" x1="436.6" y1="736.73" x2="783.13" y2="736.73" gradientTransform="translate(-284.11)" gradientUnits="userSpaceOnUse">
      <stop offset="0" stop-color="red"/>
      <stop offset=".29" stop-color="#f9250e"/>
      <stop offset=".58" stop-color="#f4421a"/>
      <stop offset=".82" stop-color="#f15321"/>
      <stop offset="1" stop-color="#f15a24"/>
    </linearGradient>
  </defs>
  <g id="_0Kqj2N.tif" data-name="0Kqj2N.tif">
    <g>
      <path class="cls-2" d="M210.9,508.81c.4-78.17,1.56-156.31,4.74-234.46,1.38-34.03,7.56-65.27,27.12-93.35,5.25-11.6,15.35-18.85,23.96-27.58,6.19-6.28,13.19-7.06,19.55-4.24,8.65,3.83,17.57,8.11,25.32,13.07,16,10.23,32.44,12.35,50.34,10.1-.34,4.37,2.11,7.04,4.79,9.54-2.68-2.5-5.13-5.18-4.79-9.54,16.91-2.4,31.77-9.69,45.71-19.19,2.02-6.11,8.09-8.39,12.21-12.44,8.5-8.36,18.16-7.86,26.95.42,4.08,3.85,7.53,8.43,11.83,11.99,18.88,15.64,41.59,19.7,65.17,20.89,20.82-4.53,40.53-11.52,56.82-25.97,16.01-17.26,21.13-17.5,37.58-1.44,20.7,20.21,46.04,27.43,74.25,26.76,16.04-4.29,32.02-8.7,45.6-18.94,13.72-10.35,19.18-10.04,31.39,1.92,4.05,3.97,7.95,8.12,11.57,12.48,30.92,37.31,36.69,81.77,36.21,127.98-.49,28.88,3.84,57.63,2.25,86.54-1.86-.33-3.53-.93-5.08-1.73-1.24-.64-2.39-1.41-3.5-2.26,1.1.85,2.26,1.62,3.5,2.26,1.55.8,3.22,1.41,5.08,1.73.22,30.36.45,60.72.68,91.08-3.62-.05-5.92-2.09-8.02-4.37,2.1,2.28,4.4,4.31,8.02,4.37-.2,27.34,4.1,54.68.06,82.02-.22,31.92-.44,63.85-.66,95.77h0c1.09,29.67-2.04,59.23-2.27,88.87-.66,16.27-.73,32.59-2.08,48.8-3.27,39.34-19.24,72.87-47.81,100.23-6.39,6.12-13.72,10.47-22.29,4.53-7.16-4.96-15.43-7.88-22.53-12.55-17.9-11.76-37.52-10.33-56.78-7.87-21.07,2.7-37.62,15.49-53.31,29.01-10.3,8.88-16.31,8.36-26.43-.75-11.82-10.64-24.73-20.27-39.96-25.1-31.33-9.94-61.51-6.25-86.47,15.68-32.74,28.77-32.8,15.74-54.08-2.79-.27-.24-.41-.63-.61-.96,21.13-13.54,41.47-27.96,55.63-49.36,7.6-8.22,12.85-17.89,17.23-28.08,6.28-10.62,10.44-22,12.24-34.23,5.32-16.33,7.08-33.04,5.27-50.12-2.19-49.99-22.84-91.22-60.59-123.46-29.27-25-63.39-39.22-102.35-40.47-18.61-1.2-37.04-.62-54.88,5.68-13.87,3.3-27.33,7.56-38.71,16.65-7.24,1.65-12.94,5.91-18.23,10.84-3,1.82-6,3.63-9.01,5.45-.23-31.13-.78-62.27-.62-93.4ZM671.95,506.38c6.96-1.86,13.24-4.49,18.26-8.45-5.01,3.96-11.3,6.59-18.26,8.45h0ZM635.52,294.74c0,.35-.03.7-.08,1.08-25.92.74-51.84,1.04-77.76.33,25.92.72,51.84.41,77.76-.32.05-.37.07-.73.08-1.08ZM692.53,353.69c4.82-6.32,8.22-12.9,9.26-19.81-1.04,6.9-4.44,13.48-9.26,19.81h0ZM695.21,354.17c.14.05.27.11.41.17-.14-.06-.27-.12-.41-.17ZM696,354.49c.67.31,1.29.7,1.87,1.14-.58-.44-1.2-.83-1.87-1.14ZM626.33,363.27c8.97-.11,17.95-.47,26.92-.46-8.97-.01-17.95.35-26.92.45h0ZM528.28,362.47s0,.03.01.05c0-.02-.01-.04-.01-.05ZM528.43,363c.02.07.04.13.05.19-.01-.05-.03-.12-.05-.19ZM528.28,362.45h0c-.01-1.21-.27-2.26-.69-3.2.42.94.68,1.99.69,3.2ZM487.32,296.26c19.75.53,39.5.21,59.25-.48.04-.31.07-.61.09-.91-.02.3-.05.6-.09.91-19.75.7-39.5,1.02-59.25.49-3.04-.08-6.08-.18-9.12-.31,3.04.12,6.08.23,9.12.31ZM592.22,438.13c-.11-1.14-.33-2.2-.64-3.22.31,1.01.53,2.08.64,3.22-28.86.03-57.72.05-86.59.08-6.57,1.58-13.54,1.09-20.14,2.43,6.6-1.33,13.57-.85,20.14-2.43,28.86-.03,57.72-.05,86.59-.08h0ZM586.73,426.9c.38.43.74.86,1.1,1.3-.36-.44-.72-.87-1.1-1.3ZM473.64,295.75c.08-.42.13-.82.17-1.21-.03.39-.09.8-.17,1.21-.74.31-1.49.63-2.23.94.74-.31,1.49-.63,2.23-.94ZM346.42,286.78c2.51,2.32,5.2,4.56,6.28,7.89-1.07-3.33-3.77-5.57-6.28-7.89ZM439.46,363.26c-.43,3.61,1.15,6.13,3.21,8.38-2.07-2.25-3.64-4.77-3.21-8.38-24.25-.17-48.51-.33-72.76-.51,24.25.18,48.51.34,72.76.51Z"/>
      <g>
        <path class="cls-3" d="M232.46,702.01h0c8.57-9.71,17.54-19.02,27.43-27.42,5.44-5.8,10.88-11.59,16.32-17.39,6.05-5.4,12.1-10.81,18.14-16.21,21.9-4.63,36.43,6.36,36.42,27.54-4.46,6.26-8.93,12.52-13.39,18.78-7.39,6.78-14.78,13.56-22.17,20.34-3.17,8.35,4.82,2.09,6.07,4.64,12.13-.26,24.27-.53,36.4-.79,12.13-.01,24.26-.02,36.39-.03,13.72.17,27.44.34,41.17.51,7.82,3.39,13.6,9.02,17.93,16.25,1.72,11.18.2,21.34-9.12,29.06-10.61,6.52-22.61,3.25-33.92,4.83-16.69-.36-33.38-.73-50.07-1.09-15.95.36-31.9.72-47.85,1.08,9.27,9.48,18.67,18.83,27.77,28.47,10.79,11.42,11.22,25.3,1.43,35.58-9.67,10.15-24.61,10.65-35.6.03-19.38-18.71-38.73-37.51-57.05-57.23-18.39-19.79-16.2-48.69,3.71-66.96Z"/>
        <path class="cls-1" d="M481.46,660.39c-10.91-22.36-27.42-40.19-44.51-57.68-3-1.82-6-3.63-9.01-5.45-.08,3.85-2.3,6.33-4.73,8.65,2.42-2.32,4.65-4.8,4.73-8.65-5.29-4.93-10.98-9.19-18.23-10.84-11.38-9.09-24.84-13.35-38.71-16.65-17.84-6.3-36.27-6.88-54.88-5.68-38.95,1.26-73.08,15.47-102.35,40.47-37.75,32.24-58.4,73.47-60.59,123.46-1.81,17.08-.05,33.79,5.27,50.12h0c1.8,12.22,5.97,23.6,12.24,34.22,4.39,10.2,9.63,19.86,17.23,28.09,14.16,21.39,34.5,35.82,55.63,49.36,40.72,20.74,82.82,25.59,127.39,13.72,104.58-27.87,158.22-145.38,110.52-243.13ZM422.77,768.97c-18.32,19.72-37.67,38.52-57.05,57.23-10.99,10.62-25.93,10.12-35.6-.03-9.79-10.28-9.36-24.16,1.43-35.58,9.1-9.63,18.5-18.99,27.77-28.47-15.95-.36-31.9-.72-47.85-1.08-16.69.36-33.38.73-50.07,1.09h0c-11.31-1.59-23.31,1.68-33.92-4.83-9.32-7.71-10.84-17.88-9.12-29.06,0,0,0,0,0,0,4.33-7.24,10.12-12.87,17.93-16.25,13.72-.17,27.44-.34,41.17-.51,12.13.01,24.26.02,36.39.03,12.13.26,24.27.53,36.4.79,1.25-2.55,9.25,3.71,6.07-4.64-7.39-6.78-14.78-13.56-22.17-20.34-4.46-6.26-8.93-12.52-13.39-18.78,0-21.19,14.52-32.18,36.42-27.54,6.05,5.4,12.1,10.81,18.14,16.21,5.44,5.8,10.88,11.59,16.32,17.39,9.88,8.4,18.86,17.71,27.43,27.42,19.91,18.27,22.09,47.17,3.71,66.96Z"/>
      </g>
    </g>
  </g>
  <rect class="cls-3" x="274.79" y="278.12" width="475.3" height="66.02" rx="29.04" ry="29.04"/>
  <rect class="cls-3" x="274.79" y="374.09" width="307.41" height="66.02" rx="29.04" ry="29.04"/>
</svg>