<?xml version="1.0" encoding="UTF-8"?>
<svg id="Calque_1" data-name="Calque 1" xmlns="http://www.w3.org/2000/svg" xmlns:xlink="http://www.w3.org/1999/xlink" viewBox="0 0 1000 1000">
  <defs>
    <style>
      .cls-1 {
        fill: url(#linear-gradient);
      }

      .cls-1, .cls-2, .cls-3 {
        stroke-width: 0px;
      }

      .cls-2 {
        fill: #000;
      }

      .cls-3 {
        fill: #fff;
      }
    </style>
    <linearGradient id="linear-gradient" x1="113.57" y1="688" x2="471.08" y2="688" gradientUnits="userSpaceOnUse">
      <stop offset="0" stop-color="red"/>
      <stop offset=".29" stop-color="#f9250e"/>
      <stop offset=".58" stop-color="#f4421a"/>
      <stop offset=".82" stop-color="#f15321"/>
      <stop offset="1" stop-color="#f15a24"/>
    </linearGradient>
  </defs>
  <g id="ergDwn.tif">
    <path class="cls-2" d="M685.11,435.33c0,4.2,0,7.59,0,10.98,0,106.84.02,213.68-.02,320.51,0,18.93-9.13,31.51-25.64,35.63-10.65,2.65-20.18-.05-28.82-6.5-18.03-13.47-36.01-27.02-54.1-40.42-16.88-12.5-33.02-11.28-47.85,3.5-16.88,16.82-33.7,33.71-50.56,50.54-18.27,18.24-36.63,18.31-54.71.19-16.64-16.69-33.2-33.46-49.87-50.12-15.7-15.69-31.9-16.77-49.77-3.43-17.83,13.31-35.58,26.72-53.48,39.94-11.31,8.36-23.66,9.91-36.18,3.32-12.17-6.4-17.93-16.99-17.92-30.84.09-170.21.02-340.41.43-510.62.03-13.19,2.17-26.7,5.5-39.49,12.3-47.29,46.29-76.53,95.47-82.9,11.39-1.47,22.95-2.25,34.43-2.26,132.25-.15,264.5-.12,396.75-.09,71.94.02,126.87,47.39,136.51,118.47,1.82,13.39.83,27.18.93,40.79.16,20.42.14,40.85.22,61.27.2,46.7-37.68,82.5-84.31,81.2-37.42-1.04-74.89-.31-112.34-.34-1.25,0-2.5.34-4.68.66ZM735.39,383.75c1.95.38,3.19.85,4.43.84,21.2-.04,42.43.46,63.6-.38,22.71-.91,32.15-10.72,32.49-33.55.43-29.04.62-58.12-.27-87.15-1.29-42.15-33.34-75.41-75.49-79.68-17.6-1.78-24.75,4.67-24.75,22.45-.01,56.54,0,113.08,0,169.61v7.86ZM500.94,393.2c16.47,0,32.94.09,49.41-.03,14.77-.1,25.79-10.69,25.96-24.68.18-14.35-10.88-25.42-26-25.48-32.94-.14-65.88-.14-98.82,0-15.19.07-26.13,11.05-25.95,25.49.18,13.99,11.2,24.56,25.98,24.66,16.47.11,32.94.03,49.41.03ZM500.58,527.27c16.21,0,32.42.1,48.62-.03,16.08-.13,27.15-10.5,27.12-25.12-.03-14.51-11.24-25.16-27.22-25.24-32.15-.17-64.31-.18-96.46,0-16.03.09-27.1,10.73-27.1,25.33,0,14.6,11.09,24.91,27.2,25.04,15.95.12,31.89.03,47.84.03ZM315.57,501.95c-.09,18.45,14.68,33.59,33.06,33.89,18.4.3,34.22-15.38,34.11-33.8-.12-18.35-15.22-33.33-33.62-33.34-18.5-.01-33.45,14.81-33.55,33.25ZM349.06,401.54c18.46,0,33.52-14.85,33.67-33.21.16-18.58-15.23-33.78-34.03-33.61-18.54.17-33.19,15.03-33.13,33.58.07,18.47,14.95,33.25,33.48,33.25Z"/>
  </g>
  <g id="pZ4edC.tif">
    <g>
      <path class="cls-1" d="M292.39,866.75c-98.38.1-178.85-80.36-178.82-178.77.03-98.45,80.51-178.88,178.86-178.74,98.41.15,178.43,80.15,178.65,178.6.22,98.31-80.19,178.81-178.69,178.91ZM264.8,717.75c-6.9-6.31-13.33-12.18-19.75-18.06-9.18-8.4-18.33-16.84-27.54-25.21-6.44-5.85-14.01-7.13-20.87-3.69-11.39,5.72-12.79,20.62-2.69,29.86,19.22,17.58,38.51,35.1,57.78,52.63,9.52,8.66,18.79,8.46,27.9-.58,36.74-36.46,73.48-72.92,110.21-109.38,1.15-1.15,2.31-2.3,3.36-3.54,7.38-8.78,5.08-21.57-4.88-27.26-7.71-4.41-15.8-2.94-23.02,4.28-32.5,32.48-64.98,64.97-97.46,97.46-.98.98-1.84,2.1-3.05,3.49Z"/>
      <path class="cls-3" d="M264.8,717.75c1.21-1.39,2.06-2.51,3.05-3.49,32.48-32.5,64.96-64.99,97.46-97.46,7.22-7.21,15.31-8.69,23.02-4.28,9.95,5.69,12.25,18.48,4.88,27.26-1.04,1.24-2.2,2.4-3.36,3.54-36.73,36.46-73.47,72.92-110.21,109.38-9.11,9.04-18.39,9.24-27.9.58-19.27-17.53-38.56-35.05-57.78-52.63-10.1-9.24-8.71-24.15,2.69-29.86,6.87-3.45,14.43-2.16,20.87,3.69,9.21,8.37,18.36,16.81,27.54,25.21,6.42,5.88,12.85,11.75,19.75,18.06Z"/>
    </g>
  </g>
</svg>