<?xml version="1.0" encoding="UTF-8"?>
<svg id="Calque_1" data-name="Calque 1" xmlns="http://www.w3.org/2000/svg" xmlns:xlink="http://www.w3.org/1999/xlink" viewBox="0 0 1000 1000">
  <defs>
    <style>
      .cls-1 {
        fill: url(#linear-gradient);
      }

      .cls-1, .cls-2, .cls-3 {
        stroke-width: 0px;
      }

      .cls-2 {
        fill: #1a1a1a;
      }

      .cls-3 {
        fill: #fff;
      }
    </style>
    <linearGradient id="linear-gradient" x1="449.1" y1="377.29" x2="797.09" y2="377.29" gradientUnits="userSpaceOnUse">
      <stop offset="0" stop-color="red"/>
      <stop offset=".29" stop-color="#f9250e"/>
      <stop offset=".58" stop-color="#f4421a"/>
      <stop offset=".82" stop-color="#f15321"/>
      <stop offset="1" stop-color="#f15a24"/>
    </linearGradient>
  </defs>
  <g id="PgWrg3.tif">
    <g>
      <path class="cls-2" d="M714.38,546.4c-15.76,38.24-30.95,75.14-46.17,112.03-20.35,49.32-40.88,98.57-61.02,147.99-9.66,23.7-26.64,38.07-52.12,40.29-24.52,2.14-43.3-8.67-56.9-29.13-39.74-59.74-79.55-119.44-119.7-178.91-4.49-6.65-10.61-12.81-17.26-17.29-59.33-39.95-118.87-79.59-178.53-119.05-20.73-13.71-32.05-32.37-29.91-57.22,2.22-25.79,16.92-42.6,40.95-52.4,84.32-34.41,168.46-69.25,252.67-103.92,1.9-.78,3.81-1.53,6.17-2.47-41.26,92.82-25.65,174.45,52.16,239.3,63.01,52.53,134.43,56.65,209.66,20.79Z"/>
      <path class="cls-2" d="M807.64,319.2c-21.76-62.53-63.54-104.38-126.85-126.41,6.28-2.68,11.49-4.97,16.74-7.14,22.87-9.44,45.66-19.08,68.65-28.2,23.86-9.47,44.93-3.27,62.43,14.09,17.49,17.35,23.95,38.41,14.55,62.24-10.67,27.06-22.03,53.85-33.11,80.74-.58,1.4-1.38,2.71-2.41,4.68Z"/>
      <path class="cls-2" d="M339.59,673.21c-2.63,4.45-3.97,8.23-6.53,10.8-43.89,44.05-87.9,87.99-131.98,131.85-6.17,6.14-13.3,6.21-18.51.88-5.22-5.34-4.94-12.23,1.28-18.46,43.94-44,87.97-87.91,131.96-131.86,4.21-4.21,9.4-6.46,14.65-3.3,3.56,2.14,5.87,6.36,9.12,10.09Z"/>
      <path class="cls-2" d="M406.93,740.33c-2.61,4.46-3.92,8.24-6.46,10.81-28.89,29.12-57.92,58.1-87.03,87.01-6.1,6.05-13.36,6.24-18.52,1.1-5.09-5.08-4.84-12.52,1.14-18.51,28.96-29.05,58.04-57.98,87.04-87,4.26-4.26,9.43-6.37,14.64-3.4,3.59,2.05,5.91,6.29,9.19,10Z"/>
      <path class="cls-2" d="M272.19,606.06c-2.68,4.49-4.03,8.23-6.58,10.79-28.71,28.93-57.57,57.72-86.48,86.46-6.35,6.31-13.94,6.63-19.1,1.23-4.98-5.2-4.58-12.35,1.53-18.48,28.96-29.05,58.02-58,87.06-86.98,4.19-4.18,9.36-6.5,14.62-3.13,3.49,2.23,5.76,6.38,8.95,10.11Z"/>
      <g>
        <circle class="cls-1" cx="623.09" cy="377.29" r="173.99"/>
        <path class="cls-3" d="M628.26,458.01c0-21.32-.22-42.21.23-63.08.07-3.18,2.85-6.59,5.03-9.39,5.55-7.13,11.46-13.97,17.6-21.38,6.06,23.31,17.09,33.24,35.25,32.52,12.59-.5,23.96-8.99,28.29-21.12,4.21-11.78.04-27.23-9.45-35.07-10.34-8.54-25.58-11.16-35.59-3.09-13,10.47-24.29,23.09-36.11,35-12.09,12.18-22.76,26.12-36.17,36.57-19.8,15.43-42.43,16.91-64.41,3.84-20.1-11.96-29.25-30.48-26.83-53.8,2.57-24.72,16.64-40.87,40.05-48.29,27.76-8.8,56.19,5.03,67.59,32.97-11.94-.68-23.05,3.13-34.17-6.02-11.78-9.7-32.55-5.25-42.14,6.46-9.86,12.04-9.53,30.33.76,41.91,10.51,11.83,29.79,15.58,42.14,5.07,15.01-12.77,27.78-28.19,41.39-42.58,8.11-8.57,15.26-18.17,24.11-25.87,17.56-15.29,38.16-18.35,59.63-9.82,20.06,7.97,31.91,23.34,34.62,44.98,2.82,22.5-5.47,40.66-23.86,53.44-18.21,12.67-37.66,13.39-57.27,2.56-1.68-.93-3.37-1.84-7.48-4.07,5.09,22.96-.73,39.45-23.18,48.26Z"/>
      </g>
    </g>
  </g>
</svg>